<svg fill="#F00" version="1.1" id="Capa_1" xmlns="http://www.w3.org/2000/svg" xmlns:xlink="http://www.w3.org/1999/xlink" x="0px" y="0px"
	 viewBox="0 0 1920 1080" style="enable-background:new 0 0 1920 1080;" xml:space="preserve">
<g>
	<path d="M958.8,427c0.8-1.8,1.7-3.5,2.5-5.3c6.9-16,15.2-31.3,24.7-46c14.7-22.7,28.5-46,44.2-68.1c17.9-25,36.5-49.3,57.5-71.8
		c18.4-19.7,38.5-37.5,60-53.8c10.7-8.1,22.2-14.9,35.4-17.5c14.7-3,29.4-6.7,44.6-6.9c21.4-0.4,42.9-0.5,64.3-0.7
		c15.8-0.2,31.6-0.5,47.4-0.4c23.6,0.1,47.2,2.1,70.7,4.8c36.6,4.2,73.2,8.6,109.9,12.3c16.8,1.7,33.7,1.8,50.6,2.9
		c33.1,2.1,65.6,8.1,97.5,17.1c31.7,9,55.1,28.5,70.8,57.3c8.9,16.2,14.7,33.5,17.3,51.9c1.3,9,2.9,17.9,3.7,27
		c2.2,23.5-2.3,45.8-13.1,66.9c-11.1,21.9-26.3,40.4-44.9,56.3c-27.1,23.3-56.1,43.8-86.1,63c-24.7,15.8-49.7,30.8-76.4,43
		c-38.7,17.7-79.2,29.6-121.3,35.6c-27,3.8-54.1,6.4-81.4,6c-13.3-0.2-26.4-1.8-39.4-4.5c-5.3-1.1-10.8-1.1-16.2-1.5
		c-10.6-0.7-20.8-3.2-30.5-7.6c-3.8-1.7-7.7-3.2-11.5-4.9c-12.8-5.7-22.3-14.7-28-27.6c-6.1-13.8-7.7-28.2-6.9-43.1
		c1-19.1,3.4-38,8.2-56.5c9-34.4,22.2-67.2,39.1-98.4c8.2-15.2,18.8-28.8,30.5-41.7c15-16.5,33.8-25.5,55.6-28.4
		c11.7-1.6,23.5-2.5,35.2-3.2c6.1-0.4,11.4,1.6,15,7.1c1.2,1.8,2.7,3.4,4,5.2c6.4,8.4,8.3,17.8,7.5,28.2c-2,26.4-7.9,51.9-15.7,77.2
		c-7.3,23.7-15.7,46.8-27.1,68.8c-0.4,0.8-0.6,1.6-1.2,3.2c3.8,0.6,7.3,1.4,10.8,1.7c8.3,0.9,16.6,1.5,24.9,2.4
		c11.8,1.2,23.5,1.5,35.3,0c14-1.8,28.1-3.2,42.2-4.9c22.4-2.7,42.6-11.8,61.9-22.8c6.3-3.6,12.5-7.4,18.6-11.4
		c25.8-17.3,41.2-41.4,46.3-72c1.8-10.9,1-21.7-2.4-32.3c-5.8-18.2-15.4-34-29.9-46.6c-8.1-7.1-17.3-12.1-28-13.8
		c-15-2.4-30.1-5-45.3-6.5c-21.9-2.2-43.8-4.1-65.7-5.2c-19-1-38.1-0.9-57.2-0.9c-20.5-0.1-41.1,0.4-61.6,0.2
		c-12-0.1-23.9-1.9-35.6-4.6c-3-0.7-5.1-0.3-7.3,2c-13.5,13.7-27.1,27.3-40.7,41c-2.2,2.2-4.2,4.5-6.1,7
		c-22.8,29.3-48.4,56.1-73.7,83.1c-26,27.7-50.4,56.7-73.8,86.7c-10.3,13.2-20.8,26.1-31.2,39.2c-2.5,3.1-5.2,6.2-7.2,9.5
		c-9.5,15.3-20.9,29.2-32.4,43.1c-11.8,14.3-23.4,28.8-34.9,43.3c-12.6,15.9-27.3,29.6-43.7,41.6c-8.1,5.9-16.3,6.4-25,1.7
		c-5.6-3-10.3-6.9-13.6-12.3c-4.1-6.6-8-13.4-11.3-20.5c-12.5-26.9-22.5-54.7-32.1-82.7c-12.9-37.6-25.6-75.3-38.2-112.9
		c-14.2-42.5-26.6-85.6-37-129.2c-3.2-13.4-5.1-27.1-7.6-40.6c-0.2-1.1-0.5-2.1-0.9-3.6c-5.7-0.3-11.4-0.6-17.6-0.9
		c0.4,1.5,0.5,2.6,0.8,3.5c8,19.1,10.6,39.2,10.9,59.6c0.2,12.6-2.9,24.9-7,36.8c-13,37.8-33.6,70.9-61.3,99.9
		c-28.1,29.5-60,53.8-96,72.7c-10.1,5.3-20.6,10-31.2,14.1c-37.6,14.5-75.6,28-114.6,38.2c-21.1,5.5-42.6,9.7-64.5,9.7
		c-10.1,0-19.8,1.6-29.6,3.2c-8.8,1.4-17.6,2.8-26.5,3.4c-7.2,0.5-14.5,0-21.8-0.5c-12-0.8-23.9-2-35.8-3.2
		c-20.4-2-34.6-12.8-43.6-31c-5.8-11.7-8.2-24.3-9.8-37.2c-2.3-19.1,0-38.1,2.5-57c2.3-17.5,4.3-35,7.5-52.3
		c6.3-34.3,14.1-68.3,29.3-100c3.2-6.6,7-12.7,12.5-17.7c5.3-4.9,11.8-7.5,18.9-8.5c0.7-0.1,1.5-0.1,2.1-0.4
		c9.5-3.6,19.3-2.5,29.1-1.6c9.4,0.9,18.9,1.2,28.2,2.7c8,1.3,15.9,3.6,23.6,6.2c10.7,3.6,18.8,10.8,24.9,20.2
		c5.3,8.2,6.2,17.4,5.2,26.7c-1.6,14.1-4.9,27.8-9,41.4c-5,16.7-9.2,33.6-13.4,50.5c-4.5,17.8-8.6,35.6-13.1,54
		c1.5-0.2,2.7-0.1,3.8-0.4c16.8-4.2,33.9-6.2,51.1-8c22.4-2.4,44.9-3.8,67-8.7c18.5-4.2,36.4-10,53-19.4
		c12.3-6.9,23.1-15.7,32.2-26.6c10-12,19.7-24.3,26.9-38.3c11.4-22.3,13.4-45.3,4.2-68.9c-3-7.7-7.5-14.7-13.8-20
		c-7.8-6.5-16-12.6-24.4-18.3c-7.8-5.3-16.6-8.9-25.8-11.5c-9.1-2.6-17.9-6-27-8.4c-12.7-3.4-25.7-4.7-38.8-5.4
		c-19.4-1.1-38.8-1.7-58.2-2.6c-6-0.3-12-1-17.9-1.1c-18.3-0.2-36.7,0.2-55-0.2c-10.5-0.3-21-1.3-31.4-2.9
		c-9.1-1.5-17.8-4.9-25.9-9.6c-12.5-7.4-19.1-22.4-15.5-36.4c2.2-8.5,5.7-16.5,11.5-23.2c8.1-9.4,18.2-14.7,30.7-15.5
		c1.6-0.1,3.2-0.5,4.8-1c9.8-3.1,19.9-3.8,30.1-3.9c24.2-0.3,48.3-0.7,72.5-1.6c30.2-1.2,60.3-1,90.4,1.1
		c11.7,0.8,23.4,3.1,35.1,4.7c2.5,0.3,5,0.9,7.6,1c14,0.2,28,0.3,42,0.4c18.5,0.3,37.1,0.3,55.6,1c26.5,1,53,1.1,79.6-0.5
		c23.9-1.4,47.9-2.9,71.8-4.4c2.3-0.1,4.8-0.4,6.9-1.2c7.9-2.9,16-2.8,24.2-2c13.3,1.2,26.1,4.6,38.7,8.6c7,2.2,13,6.1,18.6,10.9
		c19,16.2,29.2,37.7,36.7,60.7c12.6,38.5,22.5,77.8,30.1,117.5c4.2,21.9,7.4,44,11.1,66c0.5,3.2,0.8,6.4,1.1,9.5
		C958,426.9,958.4,426.9,958.8,427z"/>
	<path d="M863.9,927.4c-33.8-0.7-63.8-1-93.8-2.1c-27-1.1-54-3-81-4.8c-18.7-1.3-37.3-2.9-55.9-4.6c-18.8-1.7-37.6-3.8-56.3-5.8
		c-17.9-1.9-35.7-3.9-53.6-6.1c-26.1-3.3-52.3-6.4-78.3-10.3c-29.2-4.5-58.4-9.4-87.5-14.9c-44.8-8.5-88.9-20.1-131.7-35.8
		c-15.1-5.5-29.1-13.1-41.9-22.9c-6.8-5.2-13-11.1-17.5-18.5c-6.2-10.1-8.5-20.8-5.2-32.3c2.6-9.1,8-16.5,15.9-21.4
		c7.9-4.8,16.1-9.2,24.6-12.7c32.2-13.5,65.8-22,100.4-26.1c24.9-2.9,49.9-4.6,74.9-6.6c20.5-1.6,41-2.8,61.4-4.1
		c37.7-2.5,75.4-5.3,113.1-7.6c25-1.5,50.1-2.8,75.1-3.5c47.2-1.4,94.4-2.2,141.7-3.5c9.8-0.3,19.5-1.8,29.3-2.4
		c13.4-0.9,26.9-1.1,40.3-2.2c20.1-1.7,40.1-3.9,60.2-5.8c19.6-1.8,39.2-1.7,58.8-1.2c18,0.4,36,1,53.9,2.1
		c15.6,0.9,31.1,2.7,46.7,4c31.3,2.7,62.5,6.6,93.5,11.7c15.2,2.5,30.5,5,45.8,6.6c12.3,1.3,24.7,1.2,37,2c27.9,1.9,55.8,3.8,83.7,6
		c37.1,2.9,74.2,6,111.3,9.1c32.6,2.7,65.1,6.2,97.3,11.9c22.2,3.9,44,9.4,65.2,17.4c11.6,4.4,22.4,10.4,32.5,17.6
		c7,5,13.1,11,17.5,18.5c6.3,10.7,6.2,21.3-0.1,32c-4.6,7.8-11,13.9-18.2,19.3c-10.4,7.7-21.9,13.6-34,18.3
		c-37.5,14.6-76.1,25.3-116,30.7c-25.2,3.5-50.5,5.8-75.9,7.6c-31.7,2.3-63.4,4.7-95,7.2c-22.6,1.8-45.2,3.7-67.8,5.9
		c-24.6,2.4-49.1,5.4-73.6,8.1c-21.1,2.3-42.2,4.7-63.3,6.9c-19.5,2.1-39,4.3-58.5,6c-18.4,1.6-36.9,3.2-55.4,3.9
		c-32.3,1.3-64.6,1.9-97,2.7C877.5,927.6,868.8,927.4,863.9,927.4z M861.1,825.3c35.6,0.4,66.7,0.8,97.7-1.5
		c18.5-1.4,36.9-2.9,55.1-6.9c14.4-3.2,28.4-7.6,40.8-16c8-5.4,8-7.7-0.3-12.4c-22.7-12.6-46.9-21.3-72.6-25.4
		c-4.3-0.7-8.6-1.4-12.9-2.2c-2.3-0.4-4.5-1.4-6.8-1.7c-10.5-0.9-21-1.7-31.5-2.5c-26.3-2-52.7-1.6-79-0.6
		c-22.3,0.9-44.6,3.1-66.8,5.3c-18.2,1.9-36.4,4.8-54.1,9.5c-9.1,2.4-18.2,5.1-26.3,10.1c-3.3,2.1-6.5,4.7-9.1,7.6
		c-3.9,4.5-3.5,9,0.9,13c2.4,2.2,5.1,4.3,8,5.5c6.9,2.8,13.8,5.7,21,7.4c24.1,5.8,48.8,7.4,73.5,8.6
		C821,824.3,843.3,824.7,861.1,825.3z"/>
</g>
</svg>
